<?xml version="1.0" encoding="utf-8"?>
<!-- Generator: Adobe Illustrator 19.2.1, SVG Export Plug-In . SVG Version: 6.00 Build 0)  -->
<svg version="1.1" id="Layer_1" xmlns="http://www.w3.org/2000/svg" xmlns:xlink="http://www.w3.org/1999/xlink" x="0px" y="0px"
	 viewBox="0 0 392.7 193.3" style="enable-background:new 0 0 392.7 193.3;" xml:space="preserve">
<style type="text/css">
	.st0{fill:#FFFFFF;}
</style>
<g>
	<path class="st0" d="M115.4,158.1c-6,0-10.8,4.9-10.8,10.8s4.9,10.8,10.8,10.8s10.8-4.9,10.8-10.8S121.4,158.1,115.4,158.1z"/>
	<circle class="st0" cx="144.6" cy="162.4" r="8.1"/>
	<path class="st0" d="M97.7,166.6c4.8,0,8.8-3.9,8.8-8.8c0-3.9-2.6-7.3-6.3-8.4l-0.4-0.1l0-0.4c0-0.2,0-0.3,0-0.4
		c0-3.4-2.8-6.1-6.1-6.1c-3.4,0-6.2,2.8-6.2,6.1c0,1.8,0.8,3.6,2.2,4.7l0.3,0.3l-0.2,0.4c-0.6,1.3-1,2.6-1,4c0,1.6,0.4,3.1,1.2,4.5
		l0.9,1.6l-1.6-0.9c-1.1-0.6-2.3-0.9-3.6-0.9c-4.1,0-7.5,3.4-7.5,7.5c0,4.1,3.4,7.5,7.5,7.5s7.5-3.4,7.5-7.5c0-1.2-0.3-2.5-0.9-3.6
		l-0.9-1.6l1.6,0.9C94.5,166.1,96.1,166.6,97.7,166.6z"/>
	<path class="st0" d="M61.7,77c7.6,0,13.7-6.2,13.7-13.7c0-3.8-1.5-7.4-4.3-10l-0.3-0.3l0.2-0.3c0.1-0.2,0.2-0.4,0.2-0.7
		c0-0.8-0.6-1.4-1.4-1.4c-0.4,0-0.8,0.2-1,0.4l-0.3,0.3l-0.3-0.2c-2-1.1-4.2-1.6-6.4-1.6c-7.6,0-13.7,6.2-13.7,13.7S54.2,77,61.7,77
		z"/>
	<path class="st0" d="M72.1,131c-2.4,0-4.7,1.2-6,3.3l-0.3,0.4l-0.4-0.3c-1.2-0.9-2.8-1-4.3-0.4l-0.9,0.4l0.2-1
		c0.1-0.5,0.2-1,0.2-1.4c0-3.8-3.1-6.9-6.9-6.9s-6.9,3.1-6.9,6.9c0,3.8,3.1,6.9,6.9,6.9c1.5,0,2.9-0.5,4.1-1.4l0.8-0.6v1
		c0,2.4,1.9,4.3,4.3,4.3c0.8,0,1.6-0.2,2.3-0.7l0.4-0.3l0.3,0.4c1.3,2.2,3.6,3.5,6.1,3.5c3.9,0,7.1-3.2,7.1-7.1
		C79.3,134.2,76.1,131,72.1,131z"/>
	<path class="st0" d="M71,100.1c0-8-6.5-14.4-14.4-14.4c-8,0-14.4,6.5-14.4,14.4s6.5,14.4,14.4,14.4C64.6,114.6,71,108.1,71,100.1z"
		/>
	<circle class="st0" cx="158.5" cy="42.2" r="2"/>
	<circle class="st0" cx="92.7" cy="17.9" r="5.2"/>
	<circle class="st0" cx="41.7" cy="54.8" r="5.2"/>
	<circle class="st0" cx="70.3" cy="41.7" r="2.3"/>
	<circle class="st0" cx="156.3" cy="167" r="1.6"/>
	<circle class="st0" cx="149.3" cy="31.9" r="3.2"/>
	<circle class="st0" cx="110" cy="33.6" r="3"/>
	<circle class="st0" cx="52.9" cy="145.4" r="5.2"/>
	<path class="st0" d="M79.6,39.7l0.9,0l-0.1,0.6c-0.2,0.8-0.2,1.6-0.2,2.4c0,6.8,5.5,12.3,12.3,12.3s12.3-5.5,12.3-12.3
		c0-2.1-0.5-4.1-1.5-6l-0.2-0.4l0.3-0.3c0.7-0.6,1.2-1.5,1.2-2.4c0-1.8-1.4-3.2-3.2-3.2c-1,0-1.9,0.4-2.5,1.2L98.5,32l-0.4-0.2
		c-2.6-1.4-5.5-1.8-8.5-1.1l-0.5,0.1L89,30.4c-0.8-2.5-3.1-4.2-5.7-4.2c-1.6,0-3.1,0.6-4.2,1.8L79,28l-0.2,0c-2.9,0.4-5,2.9-5,5.8
		C73.8,37.1,76.4,39.7,79.6,39.7z"/>
	<circle class="st0" cx="32.7" cy="111" r="1.9"/>
	<path class="st0" d="M167.1,146c-4.3,0-7.7,3.5-7.7,7.7c0,4.3,3.5,7.7,7.7,7.7c3.4,0,6.3-2.1,7.4-5.3l0.4-1.3l-0.1-1.4
		C174.6,149.3,171.2,146,167.1,146z"/>
	<path class="st0" d="M178.6,151.9c-1.2,0-2.3,0.6-2.9,1.7l-0.7,1.2l0.4,1.4c0.4,1.5,1.7,2.5,3.2,2.5c1.9,0,3.4-1.5,3.4-3.4
		C182,153.5,180.5,151.9,178.6,151.9z"/>
	<circle class="st0" cx="27.7" cy="86.1" r="3.1"/>
	<circle class="st0" cx="132.3" cy="31.6" r="3.8"/>
	<path class="st0" d="M45.2,76.2c0-0.2,0-0.4-0.1-0.6L45,75.1l0.5-0.1c1.2-0.2,2-1.3,2-2.4c0-1.4-1.1-2.5-2.5-2.5
		c-1,0-2,0.7-2.3,1.6l-0.2,0.4L42,71.9c-0.6-0.2-1.1-0.3-1.6-0.2l-0.8,0.1l0-0.8c0-3.1-2.5-5.7-5.7-5.7s-5.7,2.5-5.7,5.7
		c0,3.1,2.5,5.7,5.7,5.7c0.6,0,1.1-0.1,1.6-0.2l0.6-0.2l0.1,0.6c0.3,2.2,2.2,3.8,4.4,3.8C43.2,80.7,45.2,78.7,45.2,76.2z"/>
	<circle class="st0" cx="106" cy="181.9" r="2.6"/>
</g>
<g>
	<path class="st0" d="M100.8,78h-9.3v-4.4h23.7V78h-9.2v31h-5.1V78z"/>
	<path class="st0" d="M146.3,73.6v35.4h-5.1V93.4h-15.9v15.7h-5.1V73.6h5.1V89h15.9V73.6H146.3z"/>
	<path class="st0" d="M155.5,109.1V73.6h19.4V78h-14.4v10.9H173v4.4h-12.5v11.4h15v4.4H155.5z"/>
	<path class="st0" d="M192.3,73.6c7.5,0,11.9,2.9,11.9,10.1c0,5.9-3.6,9.1-7.8,9.7v0.2c1.5,0.7,2.8,1.9,4.4,4.8l6.2,10.7h-6.1
		l-6.3-11.4c-1.1-2-2.5-2.9-4.9-2.9h-2.1v14.3h-5.1V73.6H192.3z M187.7,90.6h4.1c4.6,0,7.2-1.9,7.2-6.4s-2.6-6.2-7.4-6.2h-3.9V90.6z
		"/>
	<path class="st0" d="M230.5,97.1l9.1-23.4h7.9v35.4h-5V79.7h-0.3c-3.2,8.1-6.5,16.5-9.7,24.6h-4.9l-9.7-24.6h-0.3v29.4H213V73.6
		h8.1l9.1,23.4H230.5z"/>
	<path class="st0" d="M268.8,109.6c-8.5,0-13.7-4.9-13.7-18c0-13,5.7-18.4,14.2-18.4c8.5,0,13.8,5,13.8,18
		C283,104.2,277.4,109.6,268.8,109.6z M269.1,105.1c5.3,0,8.6-3.3,8.6-13.6c0-10.4-3.4-13.9-8.9-13.9c-5.2,0-8.6,3.2-8.6,13.5
		C260.2,101.6,263.7,105.1,269.1,105.1z"/>
	<path class="st0" d="M290.5,109.1V73.6h19.3V78h-14.2v12H308v4.4h-12.4v14.7H290.5z"/>
	<path class="st0" d="M316.5,73.6h5.1v35.4h-5.1V73.6z"/>
	<path class="st0" d="M344.3,73.1c5.9,0,8.8,2.3,9.9,3.3l-3.3,3.8c-1.4-1.3-3.3-2.6-7-2.6c-5.8,0-9.2,4.2-9.2,13.6
		c0,8.9,3.3,13.7,9.7,13.7c3.5,0,5.5-1.2,6.7-2.4l2.8,3.6c-1.5,1.6-4.8,3.3-10.2,3.3c-10.1,0-14.3-7.1-14.3-17.9
		C329.5,80.2,334.6,73.1,344.3,73.1z"/>
	<path class="st0" d="M365.3,109.1h-5.1V73.6h5.1V109.1z M378.2,73.6h5.9L372,91.2l13.2,17.8h-6.4l-12.5-17.6v-0.2L378.2,73.6z"/>
	<path class="st0" d="M105.4,124.9l3.2-7.9h2V128h-1.2v-9.6h-0.1c-1.1,2.6-2.2,5.3-3.3,8h-1.3l-3.3-8h-0.1v9.6h-1.2V117h2
		L105.4,124.9L105.4,124.9z"/>
	<path class="st0" d="M119.4,127.4c-0.6,0.4-1.5,0.8-2.7,0.8c-2.4,0-3.8-1.2-3.8-4.4c0-3.1,1.7-4.4,3.6-4.4c2,0,3.1,1.3,3.1,3.4
		c0,0.4,0,0.9-0.1,1.5h-5.5c0.1,2.1,1,2.9,2.7,2.9c0.9,0,1.6-0.3,2-0.6L119.4,127.4z M114.2,123.1h4.3c0-0.2,0-0.4,0-0.5
		c0-1.5-0.6-2.3-2-2.3C115.4,120.4,114.3,121.1,114.2,123.1z"/>
	<path class="st0" d="M122.2,125.7v-5.3H121v-0.8l1.3-0.2l0.4-2.2h0.8v2.3h2.4v1h-2.4v5.2c0,1,0.5,1.4,1.2,1.4
		c0.7,0,1.1-0.2,1.3-0.3l0.3,1c-0.3,0.2-0.9,0.4-1.9,0.4C123,128.1,122.2,127.4,122.2,125.7z"/>
	<path class="st0" d="M133.6,121.9v3.9c0,0.8,0.2,1.3,0.8,1.3h0.2v0.9c-0.1,0.1-0.3,0.1-0.4,0.1c-0.9,0-1.4-0.5-1.6-1h-0.1
		c-0.4,0.5-1.1,1.2-2.6,1.2c-1.6,0-2.5-1.1-2.5-2.3c0-1.9,1.9-2.8,4.9-2.8v-0.9c0-1.4-0.7-1.8-1.8-1.8c-1.2,0-1.7,0.6-2,1l-0.9-0.7
		c0.3-0.4,1.1-1.4,2.9-1.4C132.5,119.3,133.6,120.1,133.6,121.9z M132.4,124.1c-2.1-0.1-3.7,0.4-3.7,1.7c0,0.8,0.6,1.4,1.5,1.4
		c1,0,1.8-0.6,2.1-1.2V124.1z"/>
	<path class="st0" d="M137.9,116.1v9.9c0,0.8,0.3,1.1,0.9,1.1c0.3,0,0.6-0.1,0.7-0.2v1c-0.3,0.1-0.7,0.2-1.1,0.2
		c-1.2,0-1.8-0.7-1.8-1.8v-10.3H137.9z"/>
	<path class="st0" d="M141.1,119.5h1.2v5.6c0,1.4,0.6,2.1,1.9,2.1c1.2,0,2.1-0.7,2.2-2.1v-5.6h1.2v8.6h-1l-0.2-0.9h-0.1
		c-0.2,0.3-1,1.1-2.4,1.1c-1.8,0-2.7-0.9-2.8-2.9V119.5z"/>
	<path class="st0" d="M154.5,120.7c-0.3-0.1-0.6-0.1-1-0.1c-0.8,0-1.7,0.3-2.1,1.1v6.4h-1.2v-8.6h0.9l0.3,0.9h0.1
		c0.4-0.6,1.2-1.1,2.2-1.1c0.4,0,0.7,0,0.9,0.1V120.7z"/>
	<path class="st0" d="M162.1,128.1c0,2.3-1.4,3.4-3.5,3.4c-1.6,0-2.5-0.6-2.8-0.9l0.7-1c0.4,0.4,1.1,0.8,2.3,0.8
		c1.6,0,2.2-0.8,2.2-2.3v-0.8h-0.1c-0.3,0.2-1,0.7-2.1,0.7c-1.8,0-3.3-1.1-3.3-4c0-2.7,1.3-4.6,4.2-4.6c1.1,0,1.9,0.2,2.4,0.4V128.1
		z M159.5,120.4c-1.7,0-2.8,1.1-2.8,3.4c0,2.5,1.1,3.1,2.4,3.1c0.7,0,1.4-0.3,1.8-0.8v-5.4C160.5,120.5,160,120.4,159.5,120.4z"/>
	<path class="st0" d="M165.6,116c0.5,0,0.9,0.4,0.9,0.9c0,0.5-0.4,0.9-0.9,0.9c-0.5,0-0.9-0.4-0.9-0.9
		C164.8,116.4,165.2,116,165.6,116z M165.1,119.5h1.2v8.6h-1.2V119.5z"/>
	<path class="st0" d="M174.8,121.9v3.9c0,0.8,0.2,1.3,0.8,1.3h0.2v0.9c-0.1,0.1-0.3,0.1-0.4,0.1c-0.9,0-1.4-0.5-1.6-1h-0.1
		c-0.4,0.5-1.1,1.2-2.6,1.2c-1.6,0-2.5-1.1-2.5-2.3c0-1.9,1.9-2.8,4.9-2.8v-0.9c0-1.4-0.7-1.8-1.8-1.8c-1.2,0-1.7,0.6-2,1l-0.9-0.7
		c0.3-0.4,1.1-1.4,2.9-1.4C173.7,119.3,174.8,120.1,174.8,121.9z M173.7,124.1c-2.1-0.1-3.7,0.4-3.7,1.7c0,0.8,0.6,1.4,1.5,1.4
		c1,0,1.8-0.6,2.1-1.2V124.1z"/>
</g>
</svg>
