<?xml version="1.0" encoding="UTF-8"?>
<!DOCTYPE svg PUBLIC "-//W3C//DTD SVG 1.1//EN" "http://www.w3.org/Graphics/SVG/1.1/DTD/svg11.dtd">
<!-- Creator: CorelDRAW X8 -->
<svg xmlns="http://www.w3.org/2000/svg" xml:space="preserve" width="17.6699cm" height="7.38293cm" version="1.1" style="shape-rendering:geometricPrecision; text-rendering:geometricPrecision; image-rendering:optimizeQuality; fill-rule:evenodd; clip-rule:evenodd"
viewBox="0 0 17785 7434"
 xmlns:xlink="http://www.w3.org/1999/xlink">
 <defs>
  <style type="text/css">
   <![CDATA[
    .fil0 {fill:#373435}
    .fil1 {fill:#373435}
   ]]>
  </style>
 </defs>
 <g id="Capa_x0020_1">
  <metadata id="CorelCorpID_0Corel-Layer"/>
  <g id="_2059290912800">
   <path class="fil0" d="M0 5455l0 280c15,37 18,139 26,189 11,62 25,119 41,176 81,288 213,478 386,697 17,21 37,35 57,56 109,114 167,157 298,247 226,156 525,259 805,285 35,4 245,25 337,26l4598 0c83,-38 590,-29 846,-463 163,-277 194,-653 35,-965 -230,-452 -859,-490 -1355,-531 -219,-18 -348,-59 -463,-180 -192,-237 -146,-506 111,-658 175,-93 353,-68 568,-68l955 0c305,-1 288,-296 184,-326 -66,-59 -180,-42 -281,-42 -228,0 -1125,-12 -1278,8 -348,44 -627,281 -727,547 -95,365 -1,531 33,596 58,110 207,252 315,319 246,155 487,154 758,205 419,20 755,115 863,391 76,314 -51,617 -400,750 -177,68 -454,48 -655,48l-2559 0c-198,0 -450,14 -641,-1 60,-60 150,-118 238,-218 545,-613 480,-1084 480,-1844l0 -2784c0,-153 -4,-1095 1,-1248 10,-338 58,-710 -274,-888 -61,-33 -124,-36 -172,-59l-138 0c-38,18 -73,9 -172,60 -45,24 -101,67 -128,97 -193,214 -136,466 -136,782 0,243 12,2945 0,3042 -583,-255 -1187,-233 -1728,110 -397,252 -689,664 -788,1128 -13,59 -21,194 -40,236zm1644 -932l0 0c194,-13 428,41 588,110 499,216 836,682 861,1242 36,786 -592,1443 -1349,1455 -433,6 -804,-173 -1013,-393 -29,-30 -62,-55 -89,-88 -87,-107 -146,-181 -211,-319 -213,-457 -184,-969 92,-1386 23,-36 49,-72 74,-102l168 -177c260,-222 522,-319 879,-342z"/>
   <path class="fil1" d="M12111 4022c-195,-74 -259,-116 -491,-150 -1346,-202 -2397,1079 -1981,2333 332,1003 1464,1525 2473,1053 299,-140 534,-365 696,-596 172,-248 309,-591 318,-970 9,-427 0,-864 0,-1292 0,-859 -12,-2509 0,-3367 5,-374 75,-852 -345,-1004 -253,-91 -530,41 -633,275 -44,101 -41,175 -41,292 0,431 2,1705 2,2135 0,426 12,868 2,1291zm-925 169l0 0c219,-14 484,47 665,125 564,244 946,771 975,1406 41,889 -670,1632 -1528,1645 -489,8 -909,-195 -1146,-444 -32,-34 -70,-63 -100,-100 -99,-120 -166,-204 -239,-361 -241,-517 -209,-1097 104,-1568 26,-41 55,-81 84,-116l190 -200c294,-252 591,-361 995,-387z"/>
   <polygon class="fil1" points="8422,7411 8790,7411 8790,4153 8422,4153 "/>
   <path class="fil1" d="M8559 3391c-111,23 -205,127 -179,264 54,287 503,208 442,-89 -22,-106 -128,-204 -263,-175z"/>
   <path class="fil1" d="M17164 6924c279,-200 564,-482 621,-570 -463,0 -282,-3 -743,-3 -181,209 -405,459 -657,577 -293,136 -617,160 -959,87 -151,-33 -309,-123 -426,-190 -145,-83 -126,-101 -228,-183 -72,-57 -192,-197 -244,-278 -40,-61 -16,10 -90,-134 -58,-111 -132,-309 -138,-454l3160 0c42,-625 -160,-1070 -547,-1467l-187 -151c-65,-47 -129,-86 -207,-129 -310,-168 -726,-244 -1128,-175 -293,51 -588,190 -810,371 -32,27 -57,51 -89,79 -191,166 -412,488 -503,838 -123,476 -45,972 198,1371 46,75 91,132 139,197 237,320 687,609 1070,675 690,119 1203,-38 1768,-461zm-2868 -1500l0 0c20,-191 87,-362 166,-508 234,-429 706,-731 1242,-730 728,2 1327,572 1396,1238l-2804 0z"/>
  </g>
 </g>
</svg>
