<?xml version="1.0" encoding="utf-8"?>
<!-- Generator: Adobe Illustrator 22.0.1, SVG Export Plug-In . SVG Version: 6.00 Build 0)  -->
<svg version="1.1" id="Capa_1" xmlns="http://www.w3.org/2000/svg" xmlns:xlink="http://www.w3.org/1999/xlink" x="0px" y="0px"
	 viewBox="0 0 2087 872" style="enable-background:new 0 0 2087 872;" xml:space="preserve">
<style type="text/css">
	.st0{fill:#FFFFFF;}
</style>
<g id="Capa_x0020_1">
	<g id="_2024036930640">
		<path class="st0" d="M0.2,639.6v32.8c2,5,2,16.9,3,22.8c1,7,3,13.9,5,19.9c9.9,34.8,24.8,56.6,45.7,82.4c2,2,4,4,6,6
			c12.9,13.9,19.9,18.9,34.8,29.8c26.8,17.9,61.6,29.8,95.3,32.8c4,1,28.8,3,38.7,3h539.3c9.9-4,69.5-3,99.3-53.6
			c19.9-32.8,22.8-77.5,4-113.2c-26.8-53.6-100.3-57.6-158.9-62.6c-24.8-2-40.7-7-53.6-20.9c-22.8-27.8-16.9-59.6,12.9-77.5
			c19.9-10.9,40.7-7.9,66.5-7.9h112.2c35.8,0,33.8-34.8,20.9-38.7c-7-6-20.9-5-32.8-5c-26.8,0-132.1-1-150,1
			c-40.7,6-73.5,33.8-85.4,64.6c-10.9,42.7,0,62.6,4,69.5c7,12.9,24.8,29.8,37.7,37.7c28.8,17.9,56.6,17.9,88.4,23.8
			c49.7,3,88.4,13.9,101.3,45.7c8.9,37.7-6,72.5-46.7,88.4c-20.9,7.9-53.6,6-77.5,6H410.4c-22.8,0-52.6,1-75.5,0
			c7-7.9,17.9-13.9,28.8-25.8c63.6-72.5,55.6-127.1,55.6-216.5V257.2c0-17.9,0-128.1,0-146c2-39.7,7-83.4-31.8-104.3
			c-7-4-14.9-4-19.9-7h-16.9c-4,2-7.9,1-19.9,7c-5,3-11.9,7.9-14.9,11.9c-22.8,24.8-15.9,54.6-15.9,91.4c0,28.8,1,345.6,0,356.5
			c-68.5-29.8-139-26.8-202.6,12.9c-46.7,29.8-81.4,78.5-92.4,132.1C3.2,618.7,2.2,634.6,0.2,639.6z M192.9,530.4L192.9,530.4
			c22.8-1,50.7,5,69.5,12.9c58.6,25.8,97.3,80.4,100.3,146c5,92.4-69.5,168.8-157.9,170.8c-50.7,0-94.4-20.9-119.2-46.7
			c-3-3-7-6-9.9-9.9c-9.9-12.9-16.9-20.9-24.8-37.7C26,712.1,29,652.5,61.8,603.8c3-5,6-8.9,8.9-12.9l18.9-19.9
			C120.4,544.3,151.1,533.3,192.9,530.4z"/>
		<path class="st0" d="M1420.4,471.8c-22.8-8.9-29.8-13.9-57.6-17.9C1204.9,431,1081.7,581,1130.4,728
			c39.7,117.2,171.8,178.8,291,123.2c34.8-15.9,62.6-42.7,81.4-69.5c19.9-28.8,35.8-69.5,36.7-114.2c1-49.7,0-101.3,0-151
			c0-101.3-1-295,0-395.3c1-43.7,8.9-100.3-39.7-118.2c-29.8-9.9-62.6,5-74.5,32.8c-5,11.9-5,20.9-5,33.8c0,50.7,0,200.6,0,251.3
			C1420.4,370.5,1422.4,422.1,1420.4,471.8z M1312.2,491.6L1312.2,491.6c25.8-2,56.6,6,78.5,14.9c65.5,28.8,110.2,90.4,114.2,164.9
			c5,104.3-78.5,191.7-179.8,192.7c-56.6,1-106.3-22.8-134.1-51.6c-4-4-7.9-7.9-11.9-11.9c-10.9-13.9-18.9-23.8-27.8-42.7
			c-27.8-60.6-24.8-128.1,11.9-183.7c3-5,7-9.9,9.9-13.9l22.8-22.8C1229.7,507.5,1264.5,494.6,1312.2,491.6z"/>
		<polygon class="st0" points="988.4,869 1031.1,869 1031.1,487.6 988.4,487.6 		"/>
		<path class="st0" d="M1004.3,397.3c-12.9,3-23.8,14.9-20.9,31.8c6,33.8,58.6,23.8,51.6-10.9
			C1032.1,406.2,1020.2,394.3,1004.3,397.3z"/>
		<path class="st0" d="M2013.3,812.4c32.8-23.8,66.5-56.6,73.5-67.5c-54.6,1-33.8,0-87.4,0c-20.9,24.8-47.7,53.6-77.5,67.5
			c-33.8,15.9-72.5,18.9-112.2,9.9c-17.9-3-36.7-13.9-49.7-21.8c-16.9-9.9-14.9-11.9-26.8-20.9c-8.9-7-22.8-23.8-28.8-32.8
			c-5-7.9-2,1-10.9-15.9c-7-12.9-14.9-36.7-15.9-53.6h370.5c5-73.5-18.9-125.1-63.6-171.8l-21.8-17.9c-7.9-5-15.9-9.9-24.8-14.9
			c-36.7-19.9-85.4-28.8-132.1-20.9c-34.8,6-69.5,22.8-95.3,43.7c-4,3-7,6-9.9,8.9c-22.8,19.9-48.7,57.6-59.6,98.3
			c-13.9,56.6-5,114.2,23.8,160.9c5,8.9,9.9,15.9,15.9,23.8c27.8,36.7,80.4,70.5,125.1,78.5C1887.2,879.9,1947.8,862.1,2013.3,812.4
			z M1677.6,636.6L1677.6,636.6c2-22.8,9.9-42.7,18.9-59.6c27.8-50.7,82.4-86.4,146-86.4c85.4,1,154.9,67.5,163.9,146H1677.6z"/>
	</g>
</g>
</svg>
